<mxfile host="65bd71144e" modified="2021-03-12T09:16:58.275Z" agent="5.0 (Macintosh; Intel Mac OS X 11_0_0) AppleWebKit/537.36 (KHTML, like Gecko) Code/1.53.2 Chrome/87.0.4280.141 Electron/11.2.1 Safari/537.36" etag="v9YLA50Yn1aeYDxa4eYg" version="14.2.4" type="embed">
    <diagram id="dXZT_4Tq_jU0Bv2tB8mR" name="ページ1">
        <mxGraphModel dx="1555" dy="470" grid="1" gridSize="10" guides="1" tooltips="1" connect="1" arrows="1" fold="1" page="1" pageScale="1" pageWidth="827" pageHeight="1169" math="0" shadow="0">
            <root>
                <mxCell id="0"/>
                <mxCell id="1" parent="0"/>
                <mxCell id="6" style="edgeStyle=orthogonalEdgeStyle;rounded=0;orthogonalLoop=1;jettySize=auto;html=1;entryX=0.5;entryY=0;entryDx=0;entryDy=0;startArrow=ERone;startFill=0;endArrow=ERmany;endFill=0;exitX=0;exitY=0.633;exitDx=0;exitDy=0;exitPerimeter=0;" parent="1" source="2" target="3" edge="1">
                    <mxGeometry relative="1" as="geometry">
                        <Array as="points">
                            <mxPoint x="-530" y="238"/>
                        </Array>
                        <mxPoint x="-320" y="240" as="sourcePoint"/>
                    </mxGeometry>
                </mxCell>
                <mxCell id="168" value="user" style="edgeLabel;html=1;align=center;verticalAlign=middle;resizable=0;points=[];" parent="6" vertex="1" connectable="0">
                    <mxGeometry x="0.4526" y="1" relative="1" as="geometry">
                        <mxPoint x="-1" y="27" as="offset"/>
                    </mxGeometry>
                </mxCell>
                <mxCell id="9" style="edgeStyle=orthogonalEdgeStyle;rounded=0;orthogonalLoop=1;jettySize=auto;html=1;exitX=0.5;exitY=1;exitDx=0;exitDy=0;entryX=0.5;entryY=0;entryDx=0;entryDy=0;startArrow=ERone;startFill=0;endArrow=ERmany;endFill=0;" parent="1" source="2" target="4" edge="1">
                    <mxGeometry relative="1" as="geometry">
                        <Array as="points">
                            <mxPoint x="-210" y="320"/>
                            <mxPoint x="-210" y="320"/>
                        </Array>
                    </mxGeometry>
                </mxCell>
                <mxCell id="169" value="user" style="edgeLabel;html=1;align=center;verticalAlign=middle;resizable=0;points=[];" parent="9" vertex="1" connectable="0">
                    <mxGeometry x="0.6947" relative="1" as="geometry">
                        <mxPoint as="offset"/>
                    </mxGeometry>
                </mxCell>
                <mxCell id="177" style="edgeStyle=orthogonalEdgeStyle;rounded=0;orthogonalLoop=1;jettySize=auto;html=1;exitX=1;exitY=0;exitDx=0;exitDy=0;entryX=0;entryY=1;entryDx=0;entryDy=0;startArrow=ERmany;startFill=0;endArrow=ERone;endFill=0;" parent="1" source="174" target="2" edge="1">
                    <mxGeometry relative="1" as="geometry"/>
                </mxCell>
                <mxCell id="178" value="User" style="edgeLabel;html=1;align=center;verticalAlign=middle;resizable=0;points=[];" parent="177" vertex="1" connectable="0">
                    <mxGeometry x="0.1556" y="2" relative="1" as="geometry">
                        <mxPoint as="offset"/>
                    </mxGeometry>
                </mxCell>
                <mxCell id="2" value="User" style="whiteSpace=wrap;html=1;" parent="1" vertex="1">
                    <mxGeometry x="-270" y="200" width="120" height="60" as="geometry"/>
                </mxCell>
                <mxCell id="10" style="edgeStyle=orthogonalEdgeStyle;rounded=0;orthogonalLoop=1;jettySize=auto;html=1;exitX=1;exitY=0.5;exitDx=0;exitDy=0;startArrow=ERone;startFill=0;endArrow=ERmany;endFill=0;entryX=0;entryY=0.5;entryDx=0;entryDy=0;" parent="1" source="3" target="4" edge="1">
                    <mxGeometry relative="1" as="geometry">
                        <mxPoint x="-310" y="360" as="targetPoint"/>
                    </mxGeometry>
                </mxCell>
                <mxCell id="170" value="item" style="edgeLabel;html=1;align=center;verticalAlign=middle;resizable=0;points=[];" parent="10" vertex="1" connectable="0">
                    <mxGeometry x="0.72" relative="1" as="geometry">
                        <mxPoint x="-12" as="offset"/>
                    </mxGeometry>
                </mxCell>
                <mxCell id="181" style="edgeStyle=orthogonalEdgeStyle;rounded=0;orthogonalLoop=1;jettySize=auto;html=1;exitX=0.5;exitY=0;exitDx=0;exitDy=0;entryX=0.5;entryY=1;entryDx=0;entryDy=0;endArrow=ERone;endFill=0;startArrow=ERmany;startFill=0;" edge="1" parent="1" source="179" target="3">
                    <mxGeometry relative="1" as="geometry"/>
                </mxCell>
                <mxCell id="183" value="item" style="edgeLabel;html=1;align=center;verticalAlign=middle;resizable=0;points=[];" vertex="1" connectable="0" parent="181">
                    <mxGeometry x="0.2333" relative="1" as="geometry">
                        <mxPoint as="offset"/>
                    </mxGeometry>
                </mxCell>
                <mxCell id="3" value="Item" style="whiteSpace=wrap;html=1;" parent="1" vertex="1">
                    <mxGeometry x="-590" y="430" width="120" height="60" as="geometry"/>
                </mxCell>
                <mxCell id="4" value="Comment" style="whiteSpace=wrap;html=1;" parent="1" vertex="1">
                    <mxGeometry x="-270" y="430" width="120" height="60" as="geometry"/>
                </mxCell>
                <mxCell id="41" style="edgeStyle=orthogonalEdgeStyle;rounded=0;orthogonalLoop=1;jettySize=auto;html=1;startArrow=ERone;startFill=0;endArrow=ERone;endFill=0;exitX=0;exitY=0.5;exitDx=0;exitDy=0;" parent="1" source="3" target="5" edge="1">
                    <mxGeometry relative="1" as="geometry"/>
                </mxCell>
                <mxCell id="171" value="item" style="edgeLabel;html=1;align=center;verticalAlign=middle;resizable=0;points=[];" parent="41" vertex="1" connectable="0">
                    <mxGeometry x="0.65" y="-1" relative="1" as="geometry">
                        <mxPoint as="offset"/>
                    </mxGeometry>
                </mxCell>
                <mxCell id="110" style="edgeStyle=orthogonalEdgeStyle;rounded=0;orthogonalLoop=1;jettySize=auto;html=1;exitX=0.5;exitY=1;exitDx=0;exitDy=0;entryX=0.5;entryY=0;entryDx=0;entryDy=0;startArrow=ERone;startFill=0;endArrow=ERone;endFill=0;" parent="1" source="108" target="5" edge="1">
                    <mxGeometry relative="1" as="geometry">
                        <Array as="points">
                            <mxPoint x="-640" y="110"/>
                            <mxPoint x="-640" y="150"/>
                        </Array>
                    </mxGeometry>
                </mxCell>
                <mxCell id="173" value="purchase" style="edgeLabel;html=1;align=center;verticalAlign=middle;resizable=0;points=[];" parent="110" vertex="1" connectable="0">
                    <mxGeometry x="-0.25" y="1" relative="1" as="geometry">
                        <mxPoint as="offset"/>
                    </mxGeometry>
                </mxCell>
                <mxCell id="167" style="edgeStyle=orthogonalEdgeStyle;rounded=0;orthogonalLoop=1;jettySize=auto;html=1;exitX=1;exitY=0.5;exitDx=0;exitDy=0;entryX=0.5;entryY=0;entryDx=0;entryDy=0;startArrow=ERmany;startFill=0;endArrow=ERone;endFill=0;" parent="1" source="5" target="2" edge="1">
                    <mxGeometry relative="1" as="geometry"/>
                </mxCell>
                <mxCell id="172" value="user" style="edgeLabel;html=1;align=center;verticalAlign=middle;resizable=0;points=[];" parent="167" vertex="1" connectable="0">
                    <mxGeometry x="-0.7917" y="-1" relative="1" as="geometry">
                        <mxPoint x="15" y="-1" as="offset"/>
                    </mxGeometry>
                </mxCell>
                <mxCell id="5" value="Purchase" style="whiteSpace=wrap;html=1;" parent="1" vertex="1">
                    <mxGeometry x="-700" y="150" width="120" height="60" as="geometry"/>
                </mxCell>
                <mxCell id="12" value="User" style="shape=table;html=1;whiteSpace=wrap;startSize=30;container=1;collapsible=0;childLayout=tableLayout;fixedRows=1;rowLines=0;fontStyle=1;align=center;labelBackgroundColor=none;" parent="1" vertex="1">
                    <mxGeometry x="40" y="110" width="350" height="210" as="geometry"/>
                </mxCell>
                <mxCell id="13" value="" style="shape=partialRectangle;html=1;whiteSpace=wrap;collapsible=0;dropTarget=0;pointerEvents=0;fillColor=none;top=0;left=0;bottom=1;right=0;points=[[0,0.5],[1,0.5]];portConstraint=eastwest;" parent="12" vertex="1">
                    <mxGeometry y="30" width="350" height="30" as="geometry"/>
                </mxCell>
                <mxCell id="14" value="Nickname" style="shape=partialRectangle;html=1;whiteSpace=wrap;connectable=0;top=0;left=0;bottom=1;right=0;overflow=hidden;" parent="13" vertex="1">
                    <mxGeometry width="117" height="30" as="geometry"/>
                </mxCell>
                <mxCell id="15" value="String" style="shape=partialRectangle;html=1;whiteSpace=wrap;connectable=0;top=0;left=1;bottom=1;right=0;align=left;spacingLeft=6;overflow=hidden;" parent="13" vertex="1">
                    <mxGeometry x="117" width="116" height="30" as="geometry"/>
                </mxCell>
                <mxCell id="31" value="&lt;span&gt;Pricense: true&lt;/span&gt;" style="shape=partialRectangle;html=1;whiteSpace=wrap;connectable=0;top=0;left=1;bottom=1;right=0;align=left;spacingLeft=6;overflow=hidden;" parent="13" vertex="1">
                    <mxGeometry x="233" width="117" height="30" as="geometry"/>
                </mxCell>
                <mxCell id="16" value="" style="shape=partialRectangle;html=1;whiteSpace=wrap;collapsible=0;dropTarget=0;pointerEvents=0;fillColor=none;top=0;left=0;bottom=0;right=0;points=[[0,0.5],[1,0.5]];portConstraint=eastwest;" parent="12" vertex="1">
                    <mxGeometry y="60" width="350" height="30" as="geometry"/>
                </mxCell>
                <mxCell id="17" value="Email" style="shape=partialRectangle;html=1;whiteSpace=wrap;connectable=0;top=0;left=0;bottom=1;right=0;overflow=hidden;" parent="16" vertex="1">
                    <mxGeometry width="117" height="30" as="geometry"/>
                </mxCell>
                <mxCell id="18" value="String" style="shape=partialRectangle;html=1;whiteSpace=wrap;connectable=0;top=0;left=1;bottom=1;right=0;align=left;spacingLeft=6;overflow=hidden;" parent="16" vertex="1">
                    <mxGeometry x="117" width="116" height="30" as="geometry"/>
                </mxCell>
                <mxCell id="32" value="&lt;span&gt;Pricense: true&lt;/span&gt;" style="shape=partialRectangle;html=1;whiteSpace=wrap;connectable=0;top=0;left=1;bottom=1;right=0;align=left;spacingLeft=6;overflow=hidden;" parent="16" vertex="1">
                    <mxGeometry x="233" width="117" height="30" as="geometry"/>
                </mxCell>
                <mxCell id="19" value="" style="shape=partialRectangle;html=1;whiteSpace=wrap;collapsible=0;dropTarget=0;pointerEvents=0;fillColor=none;top=0;left=0;bottom=0;right=0;points=[[0,0.5],[1,0.5]];portConstraint=eastwest;" parent="12" vertex="1">
                    <mxGeometry y="90" width="350" height="30" as="geometry"/>
                </mxCell>
                <mxCell id="20" value="Password" style="shape=partialRectangle;html=1;whiteSpace=wrap;connectable=0;top=0;left=0;bottom=1;right=0;overflow=hidden;" parent="19" vertex="1">
                    <mxGeometry width="117" height="30" as="geometry"/>
                </mxCell>
                <mxCell id="21" value="String" style="shape=partialRectangle;html=1;whiteSpace=wrap;connectable=0;top=0;left=1;bottom=1;right=0;align=left;spacingLeft=6;overflow=hidden;" parent="19" vertex="1">
                    <mxGeometry x="117" width="116" height="30" as="geometry"/>
                </mxCell>
                <mxCell id="33" value="&lt;span&gt;Pricense: true&lt;/span&gt;" style="shape=partialRectangle;html=1;whiteSpace=wrap;connectable=0;top=0;left=1;bottom=1;right=0;align=left;spacingLeft=6;overflow=hidden;" parent="19" vertex="1">
                    <mxGeometry x="233" width="117" height="30" as="geometry"/>
                </mxCell>
                <mxCell id="28" style="shape=partialRectangle;html=1;whiteSpace=wrap;collapsible=0;dropTarget=0;pointerEvents=0;fillColor=none;top=0;left=0;bottom=0;right=0;points=[[0,0.5],[1,0.5]];portConstraint=eastwest;" parent="12" vertex="1">
                    <mxGeometry y="120" width="350" height="30" as="geometry"/>
                </mxCell>
                <mxCell id="29" value="Name" style="shape=partialRectangle;html=1;whiteSpace=wrap;connectable=0;top=0;left=0;bottom=1;right=0;overflow=hidden;" parent="28" vertex="1">
                    <mxGeometry width="117" height="30" as="geometry"/>
                </mxCell>
                <mxCell id="30" value="String" style="shape=partialRectangle;html=1;whiteSpace=wrap;connectable=0;top=0;left=1;bottom=1;right=0;align=left;spacingLeft=6;overflow=hidden;" parent="28" vertex="1">
                    <mxGeometry x="117" width="116" height="30" as="geometry"/>
                </mxCell>
                <mxCell id="34" value="&lt;span&gt;Pricense: true&lt;/span&gt;" style="shape=partialRectangle;html=1;whiteSpace=wrap;connectable=0;top=0;left=1;bottom=1;right=0;align=left;spacingLeft=6;overflow=hidden;" parent="28" vertex="1">
                    <mxGeometry x="233" width="117" height="30" as="geometry"/>
                </mxCell>
                <mxCell id="25" style="shape=partialRectangle;html=1;whiteSpace=wrap;collapsible=0;dropTarget=0;pointerEvents=0;fillColor=none;top=0;left=0;bottom=0;right=0;points=[[0,0.5],[1,0.5]];portConstraint=eastwest;" parent="12" vertex="1">
                    <mxGeometry y="150" width="350" height="30" as="geometry"/>
                </mxCell>
                <mxCell id="26" value="Kana" style="shape=partialRectangle;html=1;whiteSpace=wrap;connectable=0;top=0;left=0;bottom=1;right=0;overflow=hidden;" parent="25" vertex="1">
                    <mxGeometry width="117" height="30" as="geometry"/>
                </mxCell>
                <mxCell id="27" value="String" style="shape=partialRectangle;html=1;whiteSpace=wrap;connectable=0;top=0;left=1;bottom=1;right=0;align=left;spacingLeft=6;overflow=hidden;" parent="25" vertex="1">
                    <mxGeometry x="117" width="116" height="30" as="geometry"/>
                </mxCell>
                <mxCell id="35" value="&lt;span&gt;Pricense: true&lt;/span&gt;" style="shape=partialRectangle;html=1;whiteSpace=wrap;connectable=0;top=0;left=1;bottom=1;right=0;align=left;spacingLeft=6;overflow=hidden;" parent="25" vertex="1">
                    <mxGeometry x="233" width="117" height="30" as="geometry"/>
                </mxCell>
                <mxCell id="36" style="shape=partialRectangle;html=1;whiteSpace=wrap;collapsible=0;dropTarget=0;pointerEvents=0;fillColor=none;top=0;left=0;bottom=0;right=0;points=[[0,0.5],[1,0.5]];portConstraint=eastwest;" parent="12" vertex="1">
                    <mxGeometry y="180" width="350" height="30" as="geometry"/>
                </mxCell>
                <mxCell id="37" value="Birthday" style="shape=partialRectangle;html=1;whiteSpace=wrap;connectable=0;top=0;left=0;bottom=1;right=0;overflow=hidden;" parent="36" vertex="1">
                    <mxGeometry width="117" height="30" as="geometry"/>
                </mxCell>
                <mxCell id="38" value="Date" style="shape=partialRectangle;html=1;whiteSpace=wrap;connectable=0;top=0;left=1;bottom=1;right=0;align=left;spacingLeft=6;overflow=hidden;" parent="36" vertex="1">
                    <mxGeometry x="117" width="116" height="30" as="geometry"/>
                </mxCell>
                <mxCell id="39" value="&lt;span&gt;Pricense: true&lt;/span&gt;" style="shape=partialRectangle;html=1;whiteSpace=wrap;connectable=0;top=0;left=1;bottom=1;right=0;align=left;spacingLeft=6;overflow=hidden;" parent="36" vertex="1">
                    <mxGeometry x="233" width="117" height="30" as="geometry"/>
                </mxCell>
                <mxCell id="42" value="Item" style="shape=table;html=1;whiteSpace=wrap;startSize=30;container=1;collapsible=0;childLayout=tableLayout;fixedRows=1;rowLines=0;fontStyle=1;align=center;labelBackgroundColor=none;" parent="1" vertex="1">
                    <mxGeometry x="40" y="370" width="350" height="330" as="geometry"/>
                </mxCell>
                <mxCell id="43" value="" style="shape=partialRectangle;html=1;whiteSpace=wrap;collapsible=0;dropTarget=0;pointerEvents=0;fillColor=none;top=0;left=0;bottom=1;right=0;points=[[0,0.5],[1,0.5]];portConstraint=eastwest;" parent="42" vertex="1">
                    <mxGeometry y="30" width="350" height="30" as="geometry"/>
                </mxCell>
                <mxCell id="44" value="Image" style="shape=partialRectangle;html=1;whiteSpace=wrap;connectable=0;top=0;left=0;bottom=1;right=0;overflow=hidden;" parent="43" vertex="1">
                    <mxGeometry width="117" height="30" as="geometry"/>
                </mxCell>
                <mxCell id="45" value="Active Storage" style="shape=partialRectangle;html=1;whiteSpace=wrap;connectable=0;top=0;left=1;bottom=1;right=0;align=left;spacingLeft=6;overflow=hidden;" parent="43" vertex="1">
                    <mxGeometry x="117" width="116" height="30" as="geometry"/>
                </mxCell>
                <mxCell id="46" value="Precense: true" style="shape=partialRectangle;html=1;whiteSpace=wrap;connectable=0;top=0;left=1;bottom=1;right=0;align=left;spacingLeft=6;overflow=hidden;" parent="43" vertex="1">
                    <mxGeometry x="233" width="117" height="30" as="geometry"/>
                </mxCell>
                <mxCell id="47" value="" style="shape=partialRectangle;html=1;whiteSpace=wrap;collapsible=0;dropTarget=0;pointerEvents=0;fillColor=none;top=0;left=0;bottom=0;right=0;points=[[0,0.5],[1,0.5]];portConstraint=eastwest;" parent="42" vertex="1">
                    <mxGeometry y="60" width="350" height="30" as="geometry"/>
                </mxCell>
                <mxCell id="48" value="Title" style="shape=partialRectangle;html=1;whiteSpace=wrap;connectable=0;top=0;left=0;bottom=1;right=0;overflow=hidden;" parent="47" vertex="1">
                    <mxGeometry width="117" height="30" as="geometry"/>
                </mxCell>
                <mxCell id="49" value="String" style="shape=partialRectangle;html=1;whiteSpace=wrap;connectable=0;top=0;left=1;bottom=1;right=0;align=left;spacingLeft=6;overflow=hidden;" parent="47" vertex="1">
                    <mxGeometry x="117" width="116" height="30" as="geometry"/>
                </mxCell>
                <mxCell id="50" value="Precense: true" style="shape=partialRectangle;html=1;whiteSpace=wrap;connectable=0;top=0;left=1;bottom=1;right=0;align=left;spacingLeft=6;overflow=hidden;" parent="47" vertex="1">
                    <mxGeometry x="233" width="117" height="30" as="geometry"/>
                </mxCell>
                <mxCell id="51" value="" style="shape=partialRectangle;html=1;whiteSpace=wrap;collapsible=0;dropTarget=0;pointerEvents=0;fillColor=none;top=0;left=0;bottom=0;right=0;points=[[0,0.5],[1,0.5]];portConstraint=eastwest;" parent="42" vertex="1">
                    <mxGeometry y="90" width="350" height="30" as="geometry"/>
                </mxCell>
                <mxCell id="52" value="Detail" style="shape=partialRectangle;html=1;whiteSpace=wrap;connectable=0;top=0;left=0;bottom=1;right=0;overflow=hidden;" parent="51" vertex="1">
                    <mxGeometry width="117" height="30" as="geometry"/>
                </mxCell>
                <mxCell id="53" value="Text" style="shape=partialRectangle;html=1;whiteSpace=wrap;connectable=0;top=0;left=1;bottom=1;right=0;align=left;spacingLeft=6;overflow=hidden;" parent="51" vertex="1">
                    <mxGeometry x="117" width="116" height="30" as="geometry"/>
                </mxCell>
                <mxCell id="54" value="Precense: true" style="shape=partialRectangle;html=1;whiteSpace=wrap;connectable=0;top=0;left=1;bottom=1;right=0;align=left;spacingLeft=6;overflow=hidden;" parent="51" vertex="1">
                    <mxGeometry x="233" width="117" height="30" as="geometry"/>
                </mxCell>
                <mxCell id="59" style="shape=partialRectangle;html=1;whiteSpace=wrap;collapsible=0;dropTarget=0;pointerEvents=0;fillColor=none;top=0;left=0;bottom=0;right=0;points=[[0,0.5],[1,0.5]];portConstraint=eastwest;" parent="42" vertex="1">
                    <mxGeometry y="120" width="350" height="30" as="geometry"/>
                </mxCell>
                <mxCell id="60" value="Status" style="shape=partialRectangle;html=1;whiteSpace=wrap;connectable=0;top=0;left=0;bottom=1;right=0;overflow=hidden;" parent="59" vertex="1">
                    <mxGeometry width="117" height="30" as="geometry"/>
                </mxCell>
                <mxCell id="61" value="String" style="shape=partialRectangle;html=1;whiteSpace=wrap;connectable=0;top=0;left=1;bottom=1;right=0;align=left;spacingLeft=6;overflow=hidden;" parent="59" vertex="1">
                    <mxGeometry x="117" width="116" height="30" as="geometry"/>
                </mxCell>
                <mxCell id="62" value="Precense: true" style="shape=partialRectangle;html=1;whiteSpace=wrap;connectable=0;top=0;left=1;bottom=1;right=0;align=left;spacingLeft=6;overflow=hidden;" parent="59" vertex="1">
                    <mxGeometry x="233" width="117" height="30" as="geometry"/>
                </mxCell>
                <mxCell id="63" style="shape=partialRectangle;html=1;whiteSpace=wrap;collapsible=0;dropTarget=0;pointerEvents=0;fillColor=none;top=0;left=0;bottom=0;right=0;points=[[0,0.5],[1,0.5]];portConstraint=eastwest;" parent="42" vertex="1">
                    <mxGeometry y="150" width="350" height="30" as="geometry"/>
                </mxCell>
                <mxCell id="64" value="Delivery-fee" style="shape=partialRectangle;html=1;whiteSpace=wrap;connectable=0;top=0;left=0;bottom=1;right=0;overflow=hidden;" parent="63" vertex="1">
                    <mxGeometry width="117" height="30" as="geometry"/>
                </mxCell>
                <mxCell id="65" value="Integer" style="shape=partialRectangle;html=1;whiteSpace=wrap;connectable=0;top=0;left=1;bottom=1;right=0;align=left;spacingLeft=6;overflow=hidden;" parent="63" vertex="1">
                    <mxGeometry x="117" width="116" height="30" as="geometry"/>
                </mxCell>
                <mxCell id="66" value="Precense: true" style="shape=partialRectangle;html=1;whiteSpace=wrap;connectable=0;top=0;left=1;bottom=1;right=0;align=left;spacingLeft=6;overflow=hidden;" parent="63" vertex="1">
                    <mxGeometry x="233" width="117" height="30" as="geometry"/>
                </mxCell>
                <mxCell id="104" style="shape=partialRectangle;html=1;whiteSpace=wrap;collapsible=0;dropTarget=0;pointerEvents=0;fillColor=none;top=0;left=0;bottom=0;right=0;points=[[0,0.5],[1,0.5]];portConstraint=eastwest;" parent="42" vertex="1">
                    <mxGeometry y="180" width="350" height="30" as="geometry"/>
                </mxCell>
                <mxCell id="105" value="Delivery-from" style="shape=partialRectangle;html=1;whiteSpace=wrap;connectable=0;top=0;left=0;bottom=1;right=0;overflow=hidden;" parent="104" vertex="1">
                    <mxGeometry width="117" height="30" as="geometry"/>
                </mxCell>
                <mxCell id="106" value="String" style="shape=partialRectangle;html=1;whiteSpace=wrap;connectable=0;top=0;left=1;bottom=1;right=0;align=left;spacingLeft=6;overflow=hidden;" parent="104" vertex="1">
                    <mxGeometry x="117" width="116" height="30" as="geometry"/>
                </mxCell>
                <mxCell id="107" value="Precense: true" style="shape=partialRectangle;html=1;whiteSpace=wrap;connectable=0;top=0;left=1;bottom=1;right=0;align=left;spacingLeft=6;overflow=hidden;" parent="104" vertex="1">
                    <mxGeometry x="233" width="117" height="30" as="geometry"/>
                </mxCell>
                <mxCell id="100" style="shape=partialRectangle;html=1;whiteSpace=wrap;collapsible=0;dropTarget=0;pointerEvents=0;fillColor=none;top=0;left=0;bottom=0;right=0;points=[[0,0.5],[1,0.5]];portConstraint=eastwest;" parent="42" vertex="1">
                    <mxGeometry y="210" width="350" height="30" as="geometry"/>
                </mxCell>
                <mxCell id="101" value="Delivery-days" style="shape=partialRectangle;html=1;whiteSpace=wrap;connectable=0;top=0;left=0;bottom=1;right=0;overflow=hidden;" parent="100" vertex="1">
                    <mxGeometry width="117" height="30" as="geometry"/>
                </mxCell>
                <mxCell id="102" value="Integer" style="shape=partialRectangle;html=1;whiteSpace=wrap;connectable=0;top=0;left=1;bottom=1;right=0;align=left;spacingLeft=6;overflow=hidden;" parent="100" vertex="1">
                    <mxGeometry x="117" width="116" height="30" as="geometry"/>
                </mxCell>
                <mxCell id="103" value="Precense: true" style="shape=partialRectangle;html=1;whiteSpace=wrap;connectable=0;top=0;left=1;bottom=1;right=0;align=left;spacingLeft=6;overflow=hidden;" parent="100" vertex="1">
                    <mxGeometry x="233" width="117" height="30" as="geometry"/>
                </mxCell>
                <mxCell id="96" style="shape=partialRectangle;html=1;whiteSpace=wrap;collapsible=0;dropTarget=0;pointerEvents=0;fillColor=none;top=0;left=0;bottom=0;right=0;points=[[0,0.5],[1,0.5]];portConstraint=eastwest;" parent="42" vertex="1">
                    <mxGeometry y="240" width="350" height="30" as="geometry"/>
                </mxCell>
                <mxCell id="97" value="Price" style="shape=partialRectangle;html=1;whiteSpace=wrap;connectable=0;top=0;left=0;bottom=1;right=0;overflow=hidden;" parent="96" vertex="1">
                    <mxGeometry width="117" height="30" as="geometry"/>
                </mxCell>
                <mxCell id="98" value="Integer" style="shape=partialRectangle;html=1;whiteSpace=wrap;connectable=0;top=0;left=1;bottom=1;right=0;align=left;spacingLeft=6;overflow=hidden;" parent="96" vertex="1">
                    <mxGeometry x="117" width="116" height="30" as="geometry"/>
                </mxCell>
                <mxCell id="99" value="Precense: true" style="shape=partialRectangle;html=1;whiteSpace=wrap;connectable=0;top=0;left=1;bottom=1;right=0;align=left;spacingLeft=6;overflow=hidden;" parent="96" vertex="1">
                    <mxGeometry x="233" width="117" height="30" as="geometry"/>
                </mxCell>
                <mxCell id="114" style="shape=partialRectangle;html=1;whiteSpace=wrap;collapsible=0;dropTarget=0;pointerEvents=0;fillColor=none;top=0;left=0;bottom=0;right=0;points=[[0,0.5],[1,0.5]];portConstraint=eastwest;" parent="42" vertex="1">
                    <mxGeometry y="270" width="350" height="30" as="geometry"/>
                </mxCell>
                <mxCell id="115" value="User" style="shape=partialRectangle;html=1;whiteSpace=wrap;connectable=0;top=0;left=0;bottom=1;right=0;overflow=hidden;" parent="114" vertex="1">
                    <mxGeometry width="117" height="30" as="geometry"/>
                </mxCell>
                <mxCell id="116" value="References" style="shape=partialRectangle;html=1;whiteSpace=wrap;connectable=0;top=0;left=1;bottom=1;right=0;align=left;spacingLeft=6;overflow=hidden;" parent="114" vertex="1">
                    <mxGeometry x="117" width="116" height="30" as="geometry"/>
                </mxCell>
                <mxCell id="117" value="Precense: true" style="shape=partialRectangle;html=1;whiteSpace=wrap;connectable=0;top=0;left=1;bottom=1;right=0;align=left;spacingLeft=6;overflow=hidden;" parent="114" vertex="1">
                    <mxGeometry x="233" width="117" height="30" as="geometry"/>
                </mxCell>
                <mxCell id="160" style="shape=partialRectangle;html=1;whiteSpace=wrap;collapsible=0;dropTarget=0;pointerEvents=0;fillColor=none;top=0;left=0;bottom=0;right=0;points=[[0,0.5],[1,0.5]];portConstraint=eastwest;" parent="42" vertex="1">
                    <mxGeometry y="300" width="350" height="30" as="geometry"/>
                </mxCell>
                <mxCell id="161" value="Sold" style="shape=partialRectangle;html=1;whiteSpace=wrap;connectable=0;top=0;left=0;bottom=1;right=0;overflow=hidden;" parent="160" vertex="1">
                    <mxGeometry width="117" height="30" as="geometry"/>
                </mxCell>
                <mxCell id="162" value="String" style="shape=partialRectangle;html=1;whiteSpace=wrap;connectable=0;top=0;left=1;bottom=1;right=0;align=left;spacingLeft=6;overflow=hidden;" parent="160" vertex="1">
                    <mxGeometry x="117" width="116" height="30" as="geometry"/>
                </mxCell>
                <mxCell id="163" style="shape=partialRectangle;html=1;whiteSpace=wrap;connectable=0;top=0;left=1;bottom=1;right=0;align=left;spacingLeft=6;overflow=hidden;" parent="160" vertex="1">
                    <mxGeometry x="233" width="117" height="30" as="geometry"/>
                </mxCell>
                <mxCell id="67" value="Comment" style="shape=table;html=1;whiteSpace=wrap;startSize=30;container=1;collapsible=0;childLayout=tableLayout;fixedRows=1;rowLines=0;fontStyle=1;align=center;labelBackgroundColor=none;" parent="1" vertex="1">
                    <mxGeometry x="440" y="370" width="350" height="180" as="geometry"/>
                </mxCell>
                <mxCell id="68" value="" style="shape=partialRectangle;html=1;whiteSpace=wrap;collapsible=0;dropTarget=0;pointerEvents=0;fillColor=none;top=0;left=0;bottom=1;right=0;points=[[0,0.5],[1,0.5]];portConstraint=eastwest;" parent="67" vertex="1">
                    <mxGeometry y="30" width="350" height="30" as="geometry"/>
                </mxCell>
                <mxCell id="69" value="Content" style="shape=partialRectangle;html=1;whiteSpace=wrap;connectable=0;top=0;left=0;bottom=1;right=0;overflow=hidden;" parent="68" vertex="1">
                    <mxGeometry width="117" height="30" as="geometry"/>
                </mxCell>
                <mxCell id="70" value="text" style="shape=partialRectangle;html=1;whiteSpace=wrap;connectable=0;top=0;left=1;bottom=1;right=0;align=left;spacingLeft=6;overflow=hidden;" parent="68" vertex="1">
                    <mxGeometry x="117" width="116" height="30" as="geometry"/>
                </mxCell>
                <mxCell id="71" value="&lt;span&gt;Pricense: true&lt;/span&gt;" style="shape=partialRectangle;html=1;whiteSpace=wrap;connectable=0;top=0;left=1;bottom=1;right=0;align=left;spacingLeft=6;overflow=hidden;" parent="68" vertex="1">
                    <mxGeometry x="233" width="117" height="30" as="geometry"/>
                </mxCell>
                <mxCell id="72" value="" style="shape=partialRectangle;html=1;whiteSpace=wrap;collapsible=0;dropTarget=0;pointerEvents=0;fillColor=none;top=0;left=0;bottom=0;right=0;points=[[0,0.5],[1,0.5]];portConstraint=eastwest;" parent="67" vertex="1">
                    <mxGeometry y="60" width="350" height="30" as="geometry"/>
                </mxCell>
                <mxCell id="73" value="User" style="shape=partialRectangle;html=1;whiteSpace=wrap;connectable=0;top=0;left=0;bottom=1;right=0;overflow=hidden;" parent="72" vertex="1">
                    <mxGeometry width="117" height="30" as="geometry"/>
                </mxCell>
                <mxCell id="74" value="References" style="shape=partialRectangle;html=1;whiteSpace=wrap;connectable=0;top=0;left=1;bottom=1;right=0;align=left;spacingLeft=6;overflow=hidden;" parent="72" vertex="1">
                    <mxGeometry x="117" width="116" height="30" as="geometry"/>
                </mxCell>
                <mxCell id="75" value="&lt;span&gt;Pricense: true&lt;/span&gt;" style="shape=partialRectangle;html=1;whiteSpace=wrap;connectable=0;top=0;left=1;bottom=1;right=0;align=left;spacingLeft=6;overflow=hidden;" parent="72" vertex="1">
                    <mxGeometry x="233" width="117" height="30" as="geometry"/>
                </mxCell>
                <mxCell id="76" value="" style="shape=partialRectangle;html=1;whiteSpace=wrap;collapsible=0;dropTarget=0;pointerEvents=0;fillColor=none;top=0;left=0;bottom=0;right=0;points=[[0,0.5],[1,0.5]];portConstraint=eastwest;" parent="67" vertex="1">
                    <mxGeometry y="90" width="350" height="30" as="geometry"/>
                </mxCell>
                <mxCell id="77" value="Item" style="shape=partialRectangle;html=1;whiteSpace=wrap;connectable=0;top=0;left=0;bottom=1;right=0;overflow=hidden;" parent="76" vertex="1">
                    <mxGeometry width="117" height="30" as="geometry"/>
                </mxCell>
                <mxCell id="78" value="References" style="shape=partialRectangle;html=1;whiteSpace=wrap;connectable=0;top=0;left=1;bottom=1;right=0;align=left;spacingLeft=6;overflow=hidden;" parent="76" vertex="1">
                    <mxGeometry x="117" width="116" height="30" as="geometry"/>
                </mxCell>
                <mxCell id="79" value="&lt;span&gt;Pricense: true&lt;/span&gt;" style="shape=partialRectangle;html=1;whiteSpace=wrap;connectable=0;top=0;left=1;bottom=1;right=0;align=left;spacingLeft=6;overflow=hidden;" parent="76" vertex="1">
                    <mxGeometry x="233" width="117" height="30" as="geometry"/>
                </mxCell>
                <mxCell id="84" style="shape=partialRectangle;html=1;whiteSpace=wrap;collapsible=0;dropTarget=0;pointerEvents=0;fillColor=none;top=0;left=0;bottom=0;right=0;points=[[0,0.5],[1,0.5]];portConstraint=eastwest;" parent="67" vertex="1">
                    <mxGeometry y="120" width="350" height="30" as="geometry"/>
                </mxCell>
                <mxCell id="85" value="" style="shape=partialRectangle;html=1;whiteSpace=wrap;connectable=0;top=0;left=0;bottom=1;right=0;overflow=hidden;" parent="84" vertex="1">
                    <mxGeometry width="117" height="30" as="geometry"/>
                </mxCell>
                <mxCell id="86" value="" style="shape=partialRectangle;html=1;whiteSpace=wrap;connectable=0;top=0;left=1;bottom=1;right=0;align=left;spacingLeft=6;overflow=hidden;" parent="84" vertex="1">
                    <mxGeometry x="117" width="116" height="30" as="geometry"/>
                </mxCell>
                <mxCell id="87" value="" style="shape=partialRectangle;html=1;whiteSpace=wrap;connectable=0;top=0;left=1;bottom=1;right=0;align=left;spacingLeft=6;overflow=hidden;" parent="84" vertex="1">
                    <mxGeometry x="233" width="117" height="30" as="geometry"/>
                </mxCell>
                <mxCell id="88" style="shape=partialRectangle;html=1;whiteSpace=wrap;collapsible=0;dropTarget=0;pointerEvents=0;fillColor=none;top=0;left=0;bottom=0;right=0;points=[[0,0.5],[1,0.5]];portConstraint=eastwest;" parent="67" vertex="1">
                    <mxGeometry y="150" width="350" height="30" as="geometry"/>
                </mxCell>
                <mxCell id="89" value="" style="shape=partialRectangle;html=1;whiteSpace=wrap;connectable=0;top=0;left=0;bottom=1;right=0;overflow=hidden;" parent="88" vertex="1">
                    <mxGeometry width="117" height="30" as="geometry"/>
                </mxCell>
                <mxCell id="90" value="" style="shape=partialRectangle;html=1;whiteSpace=wrap;connectable=0;top=0;left=1;bottom=1;right=0;align=left;spacingLeft=6;overflow=hidden;" parent="88" vertex="1">
                    <mxGeometry x="117" width="116" height="30" as="geometry"/>
                </mxCell>
                <mxCell id="91" value="" style="shape=partialRectangle;html=1;whiteSpace=wrap;connectable=0;top=0;left=1;bottom=1;right=0;align=left;spacingLeft=6;overflow=hidden;" parent="88" vertex="1">
                    <mxGeometry x="233" width="117" height="30" as="geometry"/>
                </mxCell>
                <mxCell id="108" value="Adress" style="whiteSpace=wrap;html=1;" parent="1" vertex="1">
                    <mxGeometry x="-700" y="10" width="120" height="60" as="geometry"/>
                </mxCell>
                <mxCell id="118" value="Category" style="shape=table;html=1;whiteSpace=wrap;startSize=30;container=1;collapsible=0;childLayout=tableLayout;fixedRows=1;rowLines=0;fontStyle=1;align=center;labelBackgroundColor=none;" parent="1" vertex="1">
                    <mxGeometry x="440" y="750" width="350" height="180" as="geometry"/>
                </mxCell>
                <mxCell id="119" value="" style="shape=partialRectangle;html=1;whiteSpace=wrap;collapsible=0;dropTarget=0;pointerEvents=0;fillColor=none;top=0;left=0;bottom=1;right=0;points=[[0,0.5],[1,0.5]];portConstraint=eastwest;" parent="118" vertex="1">
                    <mxGeometry y="30" width="350" height="30" as="geometry"/>
                </mxCell>
                <mxCell id="120" value="Content" style="shape=partialRectangle;html=1;whiteSpace=wrap;connectable=0;top=0;left=0;bottom=1;right=0;overflow=hidden;" parent="119" vertex="1">
                    <mxGeometry width="117" height="30" as="geometry"/>
                </mxCell>
                <mxCell id="121" value="String" style="shape=partialRectangle;html=1;whiteSpace=wrap;connectable=0;top=0;left=1;bottom=1;right=0;align=left;spacingLeft=6;overflow=hidden;" parent="119" vertex="1">
                    <mxGeometry x="117" width="116" height="30" as="geometry"/>
                </mxCell>
                <mxCell id="122" value="&lt;span&gt;Pricense: true&lt;/span&gt;" style="shape=partialRectangle;html=1;whiteSpace=wrap;connectable=0;top=0;left=1;bottom=1;right=0;align=left;spacingLeft=6;overflow=hidden;" parent="119" vertex="1">
                    <mxGeometry x="233" width="117" height="30" as="geometry"/>
                </mxCell>
                <mxCell id="123" value="" style="shape=partialRectangle;html=1;whiteSpace=wrap;collapsible=0;dropTarget=0;pointerEvents=0;fillColor=none;top=0;left=0;bottom=0;right=0;points=[[0,0.5],[1,0.5]];portConstraint=eastwest;" parent="118" vertex="1">
                    <mxGeometry y="60" width="350" height="30" as="geometry"/>
                </mxCell>
                <mxCell id="124" value="" style="shape=partialRectangle;html=1;whiteSpace=wrap;connectable=0;top=0;left=0;bottom=1;right=0;overflow=hidden;" parent="123" vertex="1">
                    <mxGeometry width="117" height="30" as="geometry"/>
                </mxCell>
                <mxCell id="125" value="" style="shape=partialRectangle;html=1;whiteSpace=wrap;connectable=0;top=0;left=1;bottom=1;right=0;align=left;spacingLeft=6;overflow=hidden;" parent="123" vertex="1">
                    <mxGeometry x="117" width="116" height="30" as="geometry"/>
                </mxCell>
                <mxCell id="126" value="" style="shape=partialRectangle;html=1;whiteSpace=wrap;connectable=0;top=0;left=1;bottom=1;right=0;align=left;spacingLeft=6;overflow=hidden;" parent="123" vertex="1">
                    <mxGeometry x="233" width="117" height="30" as="geometry"/>
                </mxCell>
                <mxCell id="127" value="" style="shape=partialRectangle;html=1;whiteSpace=wrap;collapsible=0;dropTarget=0;pointerEvents=0;fillColor=none;top=0;left=0;bottom=0;right=0;points=[[0,0.5],[1,0.5]];portConstraint=eastwest;" parent="118" vertex="1">
                    <mxGeometry y="90" width="350" height="30" as="geometry"/>
                </mxCell>
                <mxCell id="128" value="" style="shape=partialRectangle;html=1;whiteSpace=wrap;connectable=0;top=0;left=0;bottom=1;right=0;overflow=hidden;" parent="127" vertex="1">
                    <mxGeometry width="117" height="30" as="geometry"/>
                </mxCell>
                <mxCell id="129" value="" style="shape=partialRectangle;html=1;whiteSpace=wrap;connectable=0;top=0;left=1;bottom=1;right=0;align=left;spacingLeft=6;overflow=hidden;" parent="127" vertex="1">
                    <mxGeometry x="117" width="116" height="30" as="geometry"/>
                </mxCell>
                <mxCell id="130" value="" style="shape=partialRectangle;html=1;whiteSpace=wrap;connectable=0;top=0;left=1;bottom=1;right=0;align=left;spacingLeft=6;overflow=hidden;" parent="127" vertex="1">
                    <mxGeometry x="233" width="117" height="30" as="geometry"/>
                </mxCell>
                <mxCell id="131" style="shape=partialRectangle;html=1;whiteSpace=wrap;collapsible=0;dropTarget=0;pointerEvents=0;fillColor=none;top=0;left=0;bottom=0;right=0;points=[[0,0.5],[1,0.5]];portConstraint=eastwest;" parent="118" vertex="1">
                    <mxGeometry y="120" width="350" height="30" as="geometry"/>
                </mxCell>
                <mxCell id="132" value="" style="shape=partialRectangle;html=1;whiteSpace=wrap;connectable=0;top=0;left=0;bottom=1;right=0;overflow=hidden;" parent="131" vertex="1">
                    <mxGeometry width="117" height="30" as="geometry"/>
                </mxCell>
                <mxCell id="133" value="" style="shape=partialRectangle;html=1;whiteSpace=wrap;connectable=0;top=0;left=1;bottom=1;right=0;align=left;spacingLeft=6;overflow=hidden;" parent="131" vertex="1">
                    <mxGeometry x="117" width="116" height="30" as="geometry"/>
                </mxCell>
                <mxCell id="134" value="" style="shape=partialRectangle;html=1;whiteSpace=wrap;connectable=0;top=0;left=1;bottom=1;right=0;align=left;spacingLeft=6;overflow=hidden;" parent="131" vertex="1">
                    <mxGeometry x="233" width="117" height="30" as="geometry"/>
                </mxCell>
                <mxCell id="135" style="shape=partialRectangle;html=1;whiteSpace=wrap;collapsible=0;dropTarget=0;pointerEvents=0;fillColor=none;top=0;left=0;bottom=0;right=0;points=[[0,0.5],[1,0.5]];portConstraint=eastwest;" parent="118" vertex="1">
                    <mxGeometry y="150" width="350" height="30" as="geometry"/>
                </mxCell>
                <mxCell id="136" value="" style="shape=partialRectangle;html=1;whiteSpace=wrap;connectable=0;top=0;left=0;bottom=1;right=0;overflow=hidden;" parent="135" vertex="1">
                    <mxGeometry width="117" height="30" as="geometry"/>
                </mxCell>
                <mxCell id="137" value="" style="shape=partialRectangle;html=1;whiteSpace=wrap;connectable=0;top=0;left=1;bottom=1;right=0;align=left;spacingLeft=6;overflow=hidden;" parent="135" vertex="1">
                    <mxGeometry x="117" width="116" height="30" as="geometry"/>
                </mxCell>
                <mxCell id="138" value="" style="shape=partialRectangle;html=1;whiteSpace=wrap;connectable=0;top=0;left=1;bottom=1;right=0;align=left;spacingLeft=6;overflow=hidden;" parent="135" vertex="1">
                    <mxGeometry x="233" width="117" height="30" as="geometry"/>
                </mxCell>
                <mxCell id="139" value="Item-Caategory" style="shape=table;html=1;whiteSpace=wrap;startSize=30;container=1;collapsible=0;childLayout=tableLayout;fixedRows=1;rowLines=0;fontStyle=1;align=center;labelBackgroundColor=none;" parent="1" vertex="1">
                    <mxGeometry x="40" y="750" width="350" height="180" as="geometry"/>
                </mxCell>
                <mxCell id="140" value="" style="shape=partialRectangle;html=1;whiteSpace=wrap;collapsible=0;dropTarget=0;pointerEvents=0;fillColor=none;top=0;left=0;bottom=1;right=0;points=[[0,0.5],[1,0.5]];portConstraint=eastwest;" parent="139" vertex="1">
                    <mxGeometry y="30" width="350" height="30" as="geometry"/>
                </mxCell>
                <mxCell id="141" value="Item" style="shape=partialRectangle;html=1;whiteSpace=wrap;connectable=0;top=0;left=0;bottom=1;right=0;overflow=hidden;" parent="140" vertex="1">
                    <mxGeometry width="117" height="30" as="geometry"/>
                </mxCell>
                <mxCell id="142" value="References" style="shape=partialRectangle;html=1;whiteSpace=wrap;connectable=0;top=0;left=1;bottom=1;right=0;align=left;spacingLeft=6;overflow=hidden;" parent="140" vertex="1">
                    <mxGeometry x="117" width="116" height="30" as="geometry"/>
                </mxCell>
                <mxCell id="143" value="&lt;span&gt;Pricense: true&lt;/span&gt;" style="shape=partialRectangle;html=1;whiteSpace=wrap;connectable=0;top=0;left=1;bottom=1;right=0;align=left;spacingLeft=6;overflow=hidden;" parent="140" vertex="1">
                    <mxGeometry x="233" width="117" height="30" as="geometry"/>
                </mxCell>
                <mxCell id="144" value="" style="shape=partialRectangle;html=1;whiteSpace=wrap;collapsible=0;dropTarget=0;pointerEvents=0;fillColor=none;top=0;left=0;bottom=0;right=0;points=[[0,0.5],[1,0.5]];portConstraint=eastwest;" parent="139" vertex="1">
                    <mxGeometry y="60" width="350" height="30" as="geometry"/>
                </mxCell>
                <mxCell id="145" value="Category" style="shape=partialRectangle;html=1;whiteSpace=wrap;connectable=0;top=0;left=0;bottom=1;right=0;overflow=hidden;" parent="144" vertex="1">
                    <mxGeometry width="117" height="30" as="geometry"/>
                </mxCell>
                <mxCell id="146" value="References" style="shape=partialRectangle;html=1;whiteSpace=wrap;connectable=0;top=0;left=1;bottom=1;right=0;align=left;spacingLeft=6;overflow=hidden;" parent="144" vertex="1">
                    <mxGeometry x="117" width="116" height="30" as="geometry"/>
                </mxCell>
                <mxCell id="147" value="&lt;span&gt;Pricense: true&lt;/span&gt;" style="shape=partialRectangle;html=1;whiteSpace=wrap;connectable=0;top=0;left=1;bottom=1;right=0;align=left;spacingLeft=6;overflow=hidden;" parent="144" vertex="1">
                    <mxGeometry x="233" width="117" height="30" as="geometry"/>
                </mxCell>
                <mxCell id="148" value="" style="shape=partialRectangle;html=1;whiteSpace=wrap;collapsible=0;dropTarget=0;pointerEvents=0;fillColor=none;top=0;left=0;bottom=0;right=0;points=[[0,0.5],[1,0.5]];portConstraint=eastwest;" parent="139" vertex="1">
                    <mxGeometry y="90" width="350" height="30" as="geometry"/>
                </mxCell>
                <mxCell id="149" value="" style="shape=partialRectangle;html=1;whiteSpace=wrap;connectable=0;top=0;left=0;bottom=1;right=0;overflow=hidden;" parent="148" vertex="1">
                    <mxGeometry width="117" height="30" as="geometry"/>
                </mxCell>
                <mxCell id="150" value="" style="shape=partialRectangle;html=1;whiteSpace=wrap;connectable=0;top=0;left=1;bottom=1;right=0;align=left;spacingLeft=6;overflow=hidden;" parent="148" vertex="1">
                    <mxGeometry x="117" width="116" height="30" as="geometry"/>
                </mxCell>
                <mxCell id="151" value="" style="shape=partialRectangle;html=1;whiteSpace=wrap;connectable=0;top=0;left=1;bottom=1;right=0;align=left;spacingLeft=6;overflow=hidden;" parent="148" vertex="1">
                    <mxGeometry x="233" width="117" height="30" as="geometry"/>
                </mxCell>
                <mxCell id="152" style="shape=partialRectangle;html=1;whiteSpace=wrap;collapsible=0;dropTarget=0;pointerEvents=0;fillColor=none;top=0;left=0;bottom=0;right=0;points=[[0,0.5],[1,0.5]];portConstraint=eastwest;" parent="139" vertex="1">
                    <mxGeometry y="120" width="350" height="30" as="geometry"/>
                </mxCell>
                <mxCell id="153" value="" style="shape=partialRectangle;html=1;whiteSpace=wrap;connectable=0;top=0;left=0;bottom=1;right=0;overflow=hidden;" parent="152" vertex="1">
                    <mxGeometry width="117" height="30" as="geometry"/>
                </mxCell>
                <mxCell id="154" value="" style="shape=partialRectangle;html=1;whiteSpace=wrap;connectable=0;top=0;left=1;bottom=1;right=0;align=left;spacingLeft=6;overflow=hidden;" parent="152" vertex="1">
                    <mxGeometry x="117" width="116" height="30" as="geometry"/>
                </mxCell>
                <mxCell id="155" value="" style="shape=partialRectangle;html=1;whiteSpace=wrap;connectable=0;top=0;left=1;bottom=1;right=0;align=left;spacingLeft=6;overflow=hidden;" parent="152" vertex="1">
                    <mxGeometry x="233" width="117" height="30" as="geometry"/>
                </mxCell>
                <mxCell id="156" style="shape=partialRectangle;html=1;whiteSpace=wrap;collapsible=0;dropTarget=0;pointerEvents=0;fillColor=none;top=0;left=0;bottom=0;right=0;points=[[0,0.5],[1,0.5]];portConstraint=eastwest;" parent="139" vertex="1">
                    <mxGeometry y="150" width="350" height="30" as="geometry"/>
                </mxCell>
                <mxCell id="157" value="" style="shape=partialRectangle;html=1;whiteSpace=wrap;connectable=0;top=0;left=0;bottom=1;right=0;overflow=hidden;" parent="156" vertex="1">
                    <mxGeometry width="117" height="30" as="geometry"/>
                </mxCell>
                <mxCell id="158" value="" style="shape=partialRectangle;html=1;whiteSpace=wrap;connectable=0;top=0;left=1;bottom=1;right=0;align=left;spacingLeft=6;overflow=hidden;" parent="156" vertex="1">
                    <mxGeometry x="117" width="116" height="30" as="geometry"/>
                </mxCell>
                <mxCell id="159" value="" style="shape=partialRectangle;html=1;whiteSpace=wrap;connectable=0;top=0;left=1;bottom=1;right=0;align=left;spacingLeft=6;overflow=hidden;" parent="156" vertex="1">
                    <mxGeometry x="233" width="117" height="30" as="geometry"/>
                </mxCell>
                <mxCell id="175" style="edgeStyle=orthogonalEdgeStyle;rounded=0;orthogonalLoop=1;jettySize=auto;html=1;exitX=0;exitY=1;exitDx=0;exitDy=0;entryX=1;entryY=0;entryDx=0;entryDy=0;endArrow=ERone;endFill=0;startArrow=ERmany;startFill=0;" parent="1" source="174" target="3" edge="1">
                    <mxGeometry relative="1" as="geometry"/>
                </mxCell>
                <mxCell id="176" value="Item" style="edgeLabel;html=1;align=center;verticalAlign=middle;resizable=0;points=[];" parent="175" vertex="1" connectable="0">
                    <mxGeometry x="0.1" y="1" relative="1" as="geometry">
                        <mxPoint as="offset"/>
                    </mxGeometry>
                </mxCell>
                <mxCell id="174" value="Favorite" style="whiteSpace=wrap;html=1;" parent="1" vertex="1">
                    <mxGeometry x="-430" y="310" width="120" height="60" as="geometry"/>
                </mxCell>
                <mxCell id="182" style="edgeStyle=orthogonalEdgeStyle;rounded=0;orthogonalLoop=1;jettySize=auto;html=1;exitX=0.5;exitY=1;exitDx=0;exitDy=0;entryX=0.5;entryY=0;entryDx=0;entryDy=0;endArrow=ERone;endFill=0;startArrow=ERmany;startFill=0;" edge="1" parent="1" source="179" target="180">
                    <mxGeometry relative="1" as="geometry"/>
                </mxCell>
                <mxCell id="184" value="tag" style="edgeLabel;html=1;align=center;verticalAlign=middle;resizable=0;points=[];" vertex="1" connectable="0" parent="182">
                    <mxGeometry x="-0.0333" y="2" relative="1" as="geometry">
                        <mxPoint as="offset"/>
                    </mxGeometry>
                </mxCell>
                <mxCell id="179" value="Item_tag" style="whiteSpace=wrap;html=1;" vertex="1" parent="1">
                    <mxGeometry x="-590" y="550" width="120" height="60" as="geometry"/>
                </mxCell>
                <mxCell id="180" value="tag" style="whiteSpace=wrap;html=1;" vertex="1" parent="1">
                    <mxGeometry x="-590" y="670" width="120" height="60" as="geometry"/>
                </mxCell>
            </root>
        </mxGraphModel>
    </diagram>
</mxfile>